<?xml version="1.0" encoding="UTF-8" standalone="no"?>
<!-- Created with Inkscape (http://www.inkscape.org/) -->

<svg
   xmlns:dc="http://purl.org/dc/elements/1.1/"
   xmlns:cc="http://creativecommons.org/ns#"
   xmlns:rdf="http://www.w3.org/1999/02/22-rdf-syntax-ns#"
   xmlns:svg="http://www.w3.org/2000/svg"
   xmlns="http://www.w3.org/2000/svg"
   xmlns:sodipodi="http://sodipodi.sourceforge.net/DTD/sodipodi-0.dtd"
   xmlns:inkscape="http://www.inkscape.org/namespaces/inkscape"
   width="1000"
   height="1000"
   viewBox="0 0 1000 1000"
   id="svg2"
   version="1.1"
   inkscape:version="0.92.4 (5da689c313, 2019-01-14)"
   sodipodi:docname="ukealong.svg">
  <defs
     id="defs4" />
  <sodipodi:namedview
     id="base"
     pagecolor="#ffffff"
     bordercolor="#666666"
     borderopacity="1.0"
     inkscape:pageopacity="0.0"
     inkscape:pageshadow="2"
     inkscape:zoom="0.37"
     inkscape:cx="1033.2755"
     inkscape:cy="683.25274"
     inkscape:document-units="px"
     inkscape:current-layer="layer2"
     showgrid="false"
     units="px"
     inkscape:showpageshadow="false"
     inkscape:window-width="1920"
     inkscape:window-height="1018"
     inkscape:window-x="0"
     inkscape:window-y="34"
     inkscape:window-maximized="1" />
  <metadata
     id="metadata7">
    <rdf:RDF>
      <cc:Work
         rdf:about="">
        <dc:format>image/svg+xml</dc:format>
        <dc:type
           rdf:resource="http://purl.org/dc/dcmitype/StillImage" />
        <dc:title />
        <dc:creator>
          <cc:Agent>
            <dc:title>Ramiro Gómez</dc:title>
          </cc:Agent>
        </dc:creator>
        <dc:rights>
          <cc:Agent>
            <dc:title>© Ramiro Gómez 2018 - ramiro.org</dc:title>
          </cc:Agent>
        </dc:rights>
      </cc:Work>
    </rdf:RDF>
  </metadata>
  <g
     inkscape:label="Layer 1"
     inkscape:groupmode="layer"
     id="layer1"
     transform="translate(0,-52.362161)"
     style="display:none"
     sodipodi:insensitive="true">
    <text
       xml:space="preserve"
       style="font-style:normal;font-variant:normal;font-weight:normal;font-stretch:normal;font-size:239.08354187px;line-height:1.25;font-family:'Varsity Regular';-inkscape-font-specification:'Varsity Regular, ';letter-spacing:0px;word-spacing:0px;fill:#000000;fill-opacity:1;stroke:none;stroke-width:17.93126678"
       x="51.971371"
       y="303.89468"
       id="text814"><tspan
         sodipodi:role="line"
         id="tspan812"
         x="51.971371"
         y="303.89468"
         style="font-style:normal;font-variant:normal;font-weight:normal;font-stretch:normal;font-family:Mexcellent;-inkscape-font-specification:Mexcellent;stroke-width:17.93126678">UA</tspan></text>
    <text
       id="text818"
       y="313.33856"
       x="478.51007"
       style="font-style:normal;font-variant:normal;font-weight:normal;font-stretch:normal;font-size:275.30529785px;line-height:1.25;font-family:Monoton;-inkscape-font-specification:Monoton;letter-spacing:0px;word-spacing:0px;fill:#000000;fill-opacity:1;stroke:none;stroke-width:20.64789963"
       xml:space="preserve"><tspan
         style="font-style:normal;font-variant:normal;font-weight:normal;font-stretch:normal;font-family:Monoton;-inkscape-font-specification:Monoton;stroke-width:20.64789963"
         y="313.33856"
         x="478.51007"
         id="tspan816"
         sodipodi:role="line">UA</tspan></text>
    <text
       id="text841"
       y="569.87933"
       x="51.971371"
       style="font-style:normal;font-variant:normal;font-weight:normal;font-stretch:normal;font-size:239.08354187px;line-height:1.25;font-family:'Varsity Regular';-inkscape-font-specification:'Varsity Regular, ';letter-spacing:0px;word-spacing:0px;fill:#000000;fill-opacity:1;stroke:none;stroke-width:17.93126678"
       xml:space="preserve"><tspan
         style="font-style:normal;font-variant:normal;font-weight:normal;font-stretch:normal;font-family:Mockup;-inkscape-font-specification:Mockup;stroke-width:17.93126678"
         y="569.87933"
         x="51.971371"
         id="tspan839"
         sodipodi:role="line">UA</tspan></text>
    <text
       xml:space="preserve"
       style="font-style:normal;font-variant:normal;font-weight:normal;font-stretch:normal;font-size:239.08354187px;line-height:1.25;font-family:'Varsity Regular';-inkscape-font-specification:'Varsity Regular, ';letter-spacing:0px;word-spacing:0px;fill:#000000;fill-opacity:1;stroke:none;stroke-width:17.93126678"
       x="424.09415"
       y="569.87933"
       id="text845"><tspan
         sodipodi:role="line"
         id="tspan843"
         x="424.09415"
         y="569.87933"
         style="font-style:normal;font-variant:normal;font-weight:normal;font-stretch:normal;font-family:Paragon;-inkscape-font-specification:Paragon;stroke-width:17.93126678">UA</tspan></text>
    <text
       id="text849"
       y="569.87933"
       x="736.11462"
       style="font-style:normal;font-variant:normal;font-weight:normal;font-stretch:normal;font-size:239.08354187px;line-height:1.25;font-family:'Service Station';-inkscape-font-specification:'Service Station';letter-spacing:0px;word-spacing:0px;fill:#000000;fill-opacity:1;stroke:none;stroke-width:17.93126678"
       xml:space="preserve"><tspan
         style="font-style:normal;font-variant:normal;font-weight:normal;font-stretch:normal;font-family:'Service Station';-inkscape-font-specification:'Service Station';stroke-width:17.93126678"
         y="569.87933"
         x="736.11462"
         id="tspan847"
         sodipodi:role="line">UA</tspan></text>
    <text
       xml:space="preserve"
       style="font-style:normal;font-variant:normal;font-weight:normal;font-stretch:normal;font-size:239.08354187px;line-height:1.25;font-family:'Soltz Solid';-inkscape-font-specification:'Soltz Solid';letter-spacing:0px;word-spacing:0px;fill:#000000;fill-opacity:1;stroke:none;stroke-width:17.93126678"
       x="39.183681"
       y="809.00977"
       id="text853"><tspan
         sodipodi:role="line"
         id="tspan851"
         x="39.183681"
         y="809.00977"
         style="font-style:normal;font-variant:normal;font-weight:normal;font-stretch:normal;font-family:'Soltz Solid';-inkscape-font-specification:'Soltz Solid';stroke-width:17.93126678">UA</tspan></text>
    <text
       id="text857"
       y="855.04559"
       x="430.48804"
       style="font-style:normal;font-variant:normal;font-weight:normal;font-stretch:normal;font-size:239.08354187px;line-height:1.25;font-family:Timeline;-inkscape-font-specification:Timeline;letter-spacing:0px;word-spacing:0px;fill:#000000;fill-opacity:1;stroke:none;stroke-width:17.93126678"
       xml:space="preserve"><tspan
         style="font-style:normal;font-variant:normal;font-weight:normal;font-stretch:normal;font-family:Timeline;-inkscape-font-specification:Timeline;stroke-width:17.93126678"
         y="855.04559"
         x="430.48804"
         id="tspan855"
         sodipodi:role="line">UA</tspan></text>
  </g>
  <g
     inkscape:groupmode="layer"
     id="layer2"
     inkscape:label="Layer 2">
    <path
       style="fill:#000000;stroke:none;stroke-width:1.11129236"
       d="m 2206.3662,-380.06497 c -11.0301,-12.82967 -17.8772,-30.31871 -19.8798,-52.46044 l -141.3093,7.42221 c -7.93,8.1741 -25.2975,11.12267 -39.9332,12.0138 l -294.6524,-5.07237 0.033,-10.38369 c -2.8043,-53.8052 -73.7746,-122.08386 -162.1052,-82.29437 -8.0025,3.60893 -25.7657,14.46677 -36.7511,14.89278 -7.6909,1.75165 -14.8394,1.86854 -20.9168,-1.24178 -15.029,-8.2708 -31.1739,-15.19066 -40.0199,-25.00764 -98.0414,-71.8655 -251.3392,-49.30442 -244.226,142.1315 -7.1132,191.43593 146.1846,213.997 244.226,142.1315 8.846,-9.81698 24.9909,-16.73684 40.0199,-25.00765 6.0774,-3.11031 13.2259,-2.99342 20.9168,-1.24177 10.9854,0.42601 28.7486,11.28385 36.7511,14.89278 88.3306,39.78949 159.3009,-28.48917 162.1052,-82.29436 l -0.033,-10.38371 294.6524,-5.07236 c 14.6357,0.89112 32.0032,3.8397 39.9332,12.01379 l 141.3093,7.42222 c 2.0026,-22.14173 8.8497,-39.63076 19.8798,-52.46044 z"
       id="path4167"
       inkscape:connector-curvature="0" />
    <path
       inkscape:connector-curvature="0"
       id="path1905"
       d="m 1937.3402,92.071621 c -5.642,-6.56249 -9.1444,-15.50829 -10.1687,-26.83398 l -72.281,3.79652 c -4.0563,4.18113 -12.9399,5.68935 -20.4262,6.14517 l -150.7173,-2.59456 0.017,-5.31135 c -1.4345,-27.52185 -37.7364,-62.446995 -82.9183,-42.094315 -4.0934,1.846 -13.1794,7.39988 -18.7986,7.61779 -3.9339,0.89598 -7.5904,0.95577 -10.6991,-0.63518 -7.6874,-4.23059 -15.9457,-7.77016 -20.4705,-12.79164 -50.1491,-36.75984 -128.5623,-25.21965 -124.9238,72.701545 -3.6385,97.921189 74.7747,109.461379 124.9238,72.701539 4.5248,-5.02148 12.7831,-8.56105 20.4705,-12.79164 3.1087,-1.59095 6.7652,-1.53116 10.6991,-0.63518 5.6192,0.21791 14.7052,5.77179 18.7986,7.61779 45.1819,20.35268 81.4838,-14.57246 82.9183,-42.0943 l -0.017,-5.31136 150.7173,-2.59456 c 7.4863,0.45582 16.3699,1.96404 20.4262,6.14516 l 72.281,3.79654 c 1.0243,-11.3257 4.5267,-20.271489 10.1687,-26.833989 z"
       style="fill:#000000;stroke:none;stroke-width:0.56843603" />
    <path
       inkscape:connector-curvature="0"
       id="path1920"
       d="m 624.05611,-209.9658 c -37.10785,0.62097 -70.05572,27.68063 -67.66797,91.94142 -3.63847,97.921188 74.77478,109.4610082 124.92383,72.701168 4.5248,-5.02148 12.78126,-8.56043 20.46875,-12.79102 3.10863,-1.59095 6.76526,-1.53074 10.69922,-0.63476 5.61914,0.21791 14.70544,5.77118 18.79882,7.61718 45.18187,20.35268 81.48351,-14.57191 82.91797,-42.09375 l -0.0156,-5.31054 v -38.974608 l 0.0156,-5.31055 c -1.43446,-27.52185 -37.7361,-62.44839 -82.91797,-42.09571 -4.09338,1.846 -13.17968,7.40123 -18.79882,7.61914 -3.93396,0.89598 -7.59059,0.95424 -10.69922,-0.63672 -7.68749,-4.23059 -15.94395,-7.76953 -20.46875,-12.79101 -17.23874,-12.6362 -37.81842,-19.5655 -57.25586,-19.24024 z"
       style="fill:#000000;stroke:none;stroke-width:0.56843603" />
    <path
       sodipodi:nodetypes="cccccccccc"
       inkscape:connector-curvature="0"
       id="path1922"
       d="m 1118.986,-151.89162 -72.2812,3.79688 c -4.0563,4.18113 -12.9395,5.68871 -20.4258,6.14453 l -182.56251,-1.90235 -0.12891,37.59375 182.69142,-1.90625 c 7.4863,0.45582 16.3695,1.96342 20.4258,6.14454 l 72.2812,3.796868 c 1.0243,-11.325698 4.5279,-20.271478 10.1699,-26.833978 -5.642,-6.56249 -9.1456,-15.5083 -10.1699,-26.83399 z"
       style="fill:#000000;stroke:none;stroke-width:0.56843603" />
    <text
       id="text857-9"
       y="226.81491"
       x="-479.91858"
       style="font-style:normal;font-variant:normal;font-weight:normal;font-stretch:normal;font-size:168.09135437px;line-height:1.25;font-family:Timeline;-inkscape-font-specification:Timeline;letter-spacing:0px;word-spacing:0px;display:inline;fill:#000000;fill-opacity:1;stroke:none;stroke-width:12.60685253"
       xml:space="preserve"><tspan
         style="font-style:normal;font-variant:normal;font-weight:normal;font-stretch:normal;font-family:Timeline;-inkscape-font-specification:Timeline;stroke-width:12.60685253"
         y="226.81491"
         x="-479.91858"
         id="tspan855-7"
         sodipodi:role="line">UKE</tspan></text>
    <g
       id="g2072">
      <g
         transform="translate(0,2.9564397)"
         id="g2048">
        <path
           inkscape:connector-curvature="0"
           id="path2027"
           style="font-style:normal;font-variant:normal;font-weight:normal;font-stretch:normal;font-size:94.99026489px;line-height:1.25;font-family:Timeline;-inkscape-font-specification:Timeline;letter-spacing:0px;word-spacing:0px;fill:#000000;fill-opacity:1;stroke:none;stroke-width:7.12427092"
           d="m 125.17376,238.14577 c -3.33951,0 -6.15335,-1.14409 -8.44152,-3.43227 -2.28818,-2.35002 -3.43227,-5.16386 -3.43227,-8.44152 V 117.1555 h 23.74757 v 97.2427 h 23.74756 v -97.2427 h 23.74757 v 109.11648 c 0,3.33951 -1.17501,6.15335 -3.52503,8.44152 -2.35002,2.28818 -5.13294,3.43227 -8.34875,3.43227 z"
           sodipodi:nodetypes="scsccccccscss" />
        <path
           inkscape:connector-curvature="0"
           id="path2029"
           style="font-style:normal;font-variant:normal;font-weight:normal;font-stretch:normal;font-size:94.99026489px;line-height:1.25;font-family:Timeline;-inkscape-font-specification:Timeline;letter-spacing:0px;word-spacing:0px;fill:#000000;fill-opacity:1;stroke:none;stroke-width:7.12427092"
           d="M 192.33484,226.14577 V 131.1555 h 23.74757 v 94.99027 z m 47.49513,0 -23.74756,-47.49514 23.74756,-47.49513 h 23.74757 l -23.74757,47.49513 23.74757,47.49514 z" />
        <path
           inkscape:connector-curvature="0"
           id="path2031"
           style="font-style:normal;font-variant:normal;font-weight:normal;font-stretch:normal;font-size:94.99026489px;line-height:1.25;font-family:Timeline;-inkscape-font-specification:Timeline;letter-spacing:0px;word-spacing:0px;fill:#000000;fill-opacity:1;stroke:none;stroke-width:7.12427092"
           d="M 271.36971,232.14577 V 125.1555 h 71.24269 v 23.74757 h -47.49513 v 17.87378 h 35.62135 v 23.74757 h -35.62135 v 17.87378 h 47.49513 v 23.74757 z"
           sodipodi:nodetypes="ccccccccccccc" />
      </g>
      <text
         id="text2039"
         y="209.31465"
         x="348.45978"
         style="font-style:normal;font-variant:normal;font-weight:normal;font-stretch:normal;font-size:57.41515732px;line-height:1.25;font-family:Timeline;-inkscape-font-specification:Timeline;letter-spacing:0px;word-spacing:0px;display:inline;fill:#000000;fill-opacity:1;stroke:none;stroke-width:4.30613708"
         xml:space="preserve"><tspan
           style="font-style:normal;font-variant:normal;font-weight:normal;font-stretch:normal;font-family:Timeline;-inkscape-font-specification:Timeline;stroke-width:4.30613708"
           y="209.31465"
           x="348.45978"
           id="tspan2037"
           sodipodi:role="line">ALONG</tspan></text>
      <path
         d="m 591.703,189.81398 v -18.41313 h 18.41313 v 18.41313 z"
         style="font-style:normal;font-variant:normal;font-weight:normal;font-stretch:normal;font-size:73.65251923px;line-height:1.25;font-family:Timeline;-inkscape-font-specification:Timeline;letter-spacing:0px;word-spacing:0px;fill:#000000;fill-opacity:1;stroke:none;stroke-width:5.52393913"
         id="path2050"
         inkscape:connector-curvature="0" />
      <path
         id="path2052"
         d="M 625.36523 143.78125 C 622.82383 143.78125 620.64049 144.69155 618.81836 146.51367 C 617.04418 148.28786 616.1582 150.44689 616.1582 152.98828 L 616.1582 208.22656 C 616.1582 210.76796 617.04418 212.94935 618.81836 214.77148 C 620.59255 216.54566 622.77589 217.43359 625.36523 217.43359 L 662.19141 217.43359 C 664.68485 217.43359 666.84193 216.54566 668.66406 214.77148 C 670.4862 212.9973 671.39648 210.81591 671.39648 208.22656 L 671.39648 189.81445 L 652.98438 189.81445 L 652.98438 199.01953 L 634.57031 199.01953 L 634.57031 162.19336 L 652.98438 162.19336 L 652.98438 171.40039 L 671.39648 171.40039 L 671.39648 152.98828 C 671.39648 150.49483 670.4862 148.33581 668.66406 146.51367 C 666.88988 144.69155 664.7328 143.78125 662.19141 143.78125 L 625.36523 143.78125 z M 686.64648 143.78125 C 684.10508 143.78125 681.92174 144.69155 680.09961 146.51367 C 678.32543 148.28786 677.43945 150.44689 677.43945 152.98828 L 677.43945 208.22656 C 677.43945 210.76796 678.32543 212.94935 680.09961 214.77148 C 681.8738 216.54566 684.05714 217.43359 686.64648 217.43359 L 723.47266 217.43359 C 725.9661 217.43359 728.12318 216.54566 729.94531 214.77148 C 731.76745 212.9973 732.67773 210.81591 732.67773 208.22656 L 732.67773 152.98828 C 732.67773 150.49483 731.76745 148.33581 729.94531 146.51367 C 728.17113 144.69155 726.01406 143.78125 723.47266 143.78125 L 686.64648 143.78125 z M 738.7207 143.78125 L 738.7207 217.43359 L 757.13281 217.43359 L 757.13281 171.40039 L 775.54688 208.22656 L 793.95898 171.40039 L 793.95898 217.43359 L 812.37305 217.43359 L 812.37305 143.78125 L 789.35547 143.78125 L 775.54688 171.40039 L 761.73633 143.78125 L 738.7207 143.78125 z M 695.85156 162.19336 L 714.26562 162.19336 L 714.26562 199.01953 L 695.85156 199.01953 L 695.85156 162.19336 z "
         style="font-style:normal;font-variant:normal;font-weight:normal;font-stretch:normal;font-size:73.65251923px;line-height:1.25;font-family:Timeline;-inkscape-font-specification:Timeline;letter-spacing:0px;word-spacing:0px;fill:#000000;fill-opacity:1;stroke:none;stroke-width:5.52393913" />
    </g>
    <text
       id="text1040"
       y="-198.45435"
       x="-746.26324"
       style="font-style:normal;font-variant:normal;font-weight:normal;font-stretch:normal;font-size:261.60873413px;line-height:1.25;font-family:Backstreet;-inkscape-font-specification:Backstreet;letter-spacing:0px;word-spacing:0px;display:inline;fill:#000000;fill-opacity:1;stroke:none;stroke-width:19.62065506"
       xml:space="preserve"><tspan
         style="font-style:normal;font-variant:normal;font-weight:normal;font-stretch:normal;font-family:Backstreet;-inkscape-font-specification:Backstreet;stroke-width:19.62065506"
         y="-198.45435"
         x="-746.26324"
         id="tspan1038"
         sodipodi:role="line">UKE ALONG</tspan></text>
    <text
       xml:space="preserve"
       style="font-style:normal;font-variant:normal;font-weight:normal;font-stretch:normal;font-size:219.83404541px;line-height:1.25;font-family:Backstreet;-inkscape-font-specification:Backstreet;letter-spacing:0px;word-spacing:0px;display:inline;fill:#000000;fill-opacity:1;stroke:none;stroke-width:16.48755455"
       x="72.354187"
       y="730.03076"
       id="text1030"
       transform="scale(0.86160525,1.1606243)"><tspan
         sodipodi:role="line"
         id="tspan1028"
         x="72.354187"
         y="730.03076"
         style="font-style:normal;font-variant:normal;font-weight:normal;font-stretch:normal;font-family:'Kitchen Sink Gold';-inkscape-font-specification:'Kitchen Sink Gold';stroke-width:16.48755455">UKE</tspan></text>
    <text
       id="text1044"
       y="941.9881"
       x="349.06677"
       style="font-style:normal;font-variant:normal;font-weight:normal;font-stretch:normal;font-size:132.61550903px;line-height:1.25;font-family:Backstreet;-inkscape-font-specification:Backstreet;letter-spacing:0px;word-spacing:0px;display:inline;fill:#000000;fill-opacity:1;stroke:none;stroke-width:9.94616318"
       xml:space="preserve"
       transform="scale(1.2043439,0.83032761)"><tspan
         style="font-style:normal;font-variant:normal;font-weight:normal;font-stretch:normal;font-family:'Kitchen Sink Gold';-inkscape-font-specification:'Kitchen Sink Gold';stroke-width:9.94616318"
         y="941.9881"
         x="349.06677"
         id="tspan1042"
         sodipodi:role="line">ALON</tspan></text>
    <text
       transform="scale(1.2218406,0.81843737)"
       xml:space="preserve"
       style="font-style:normal;font-variant:normal;font-weight:normal;font-stretch:normal;font-size:201.13525391px;line-height:1.25;font-family:Backstreet;-inkscape-font-specification:Backstreet;letter-spacing:0px;word-spacing:0px;display:inline;fill:#000000;fill-opacity:1;stroke:none;stroke-width:15.08514404"
       x="675.62744"
       y="985.58014"
       id="text1048"><tspan
         sodipodi:role="line"
         id="tspan1046"
         x="675.62744"
         y="985.58014"
         style="font-style:normal;font-variant:normal;font-weight:normal;font-stretch:normal;font-family:'Kitchen Sink Gold';-inkscape-font-specification:'Kitchen Sink Gold';stroke-width:15.08514404">G</tspan></text>
  </g>
</svg>
