<?xml version="1.0" encoding="UTF-8" standalone="no"?>
<!-- Created with Inkscape (http://www.inkscape.org/) -->

<svg
   xmlns:dc="http://purl.org/dc/elements/1.1/"
   xmlns:cc="http://creativecommons.org/ns#"
   xmlns:rdf="http://www.w3.org/1999/02/22-rdf-syntax-ns#"
   xmlns:svg="http://www.w3.org/2000/svg"
   xmlns="http://www.w3.org/2000/svg"
   xmlns:sodipodi="http://sodipodi.sourceforge.net/DTD/sodipodi-0.dtd"
   xmlns:inkscape="http://www.inkscape.org/namespaces/inkscape"
   width="1000"
   height="1000"
   viewBox="0 0 1000 1000"
   id="svg2"
   version="1.1"
   inkscape:version="0.92.4 (5da689c313, 2019-01-14)"
   sodipodi:docname="ukealong-social.svg"
   inkscape:export-filename="/home/rg/repos/priv/products/upload/ukealong-social.png"
   inkscape:export-xdpi="96"
   inkscape:export-ydpi="96">
  <defs
     id="defs4" />
  <sodipodi:namedview
     id="base"
     pagecolor="#ffffff"
     bordercolor="#666666"
     borderopacity="1.0"
     inkscape:pageopacity="0.0"
     inkscape:pageshadow="2"
     inkscape:zoom="0.3685"
     inkscape:cx="1152.0521"
     inkscape:cy="301.79555"
     inkscape:document-units="px"
     inkscape:current-layer="layer1"
     showgrid="false"
     units="px"
     inkscape:showpageshadow="false"
     inkscape:window-width="1920"
     inkscape:window-height="1018"
     inkscape:window-x="0"
     inkscape:window-y="34"
     inkscape:window-maximized="1"
     showguides="true"
     inkscape:object-paths="true" />
  <metadata
     id="metadata7">
    <rdf:RDF>
      <cc:Work
         rdf:about="">
        <dc:format>image/svg+xml</dc:format>
        <dc:type
           rdf:resource="http://purl.org/dc/dcmitype/StillImage" />
        <dc:title />
        <dc:creator>
          <cc:Agent>
            <dc:title>Ramiro Gómez</dc:title>
          </cc:Agent>
        </dc:creator>
        <dc:rights>
          <cc:Agent>
            <dc:title>© Ramiro Gómez 2018 - ramiro.org</dc:title>
          </cc:Agent>
        </dc:rights>
      </cc:Work>
    </rdf:RDF>
  </metadata>
  <g
     inkscape:label="Layer 1"
     inkscape:groupmode="layer"
     id="layer1"
     transform="translate(0,-52.362161)">
    <text
       id="text1040"
       y="-125.66903"
       x="-1148.4823"
       style="font-style:normal;font-variant:normal;font-weight:normal;font-stretch:normal;font-size:261.60873413px;line-height:1.25;font-family:Backstreet;-inkscape-font-specification:Backstreet;letter-spacing:0px;word-spacing:0px;display:inline;fill:#000000;fill-opacity:1;stroke:none;stroke-width:19.62065506"
       xml:space="preserve"><tspan
         style="font-style:normal;font-variant:normal;font-weight:normal;font-stretch:normal;font-family:Backstreet;-inkscape-font-specification:Backstreet;stroke-width:19.62065506"
         y="-125.66903"
         x="-1148.4823"
         id="tspan1038"
         sodipodi:role="line">UKE ALONG</tspan></text>
    <g
       id="g2226">
      <path
         inkscape:connector-curvature="0"
         id="path2220"
         style="font-style:normal;font-variant:normal;font-weight:normal;font-stretch:normal;font-size:261.60873413px;line-height:1.25;font-family:Backstreet;-inkscape-font-specification:Backstreet;letter-spacing:0px;word-spacing:0px;fill:#000000;fill-opacity:1;stroke:none;stroke-width:36.17801666"
         d="m 226.19117,-296.78528 v 171.9398 q 0,3.29748 3.2974,3.29748 h 40.2763 q 3.2975,0 3.2975,-3.29748 v -171.9398 h 93.27141 v 183.24543 q 0,24.024456 -16.95839,40.982916 -16.95852,16.95844 -40.74742,16.95844 h -117.7669 q -24.0246,0 -40.9831,-16.95844 -16.9583,-16.95846 -16.9583,-40.982916 v -183.24543 z" />
      <path
         inkscape:connector-curvature="0"
         id="path2222"
         style="font-style:normal;font-variant:normal;font-weight:normal;font-stretch:normal;font-size:261.60873413px;line-height:1.25;font-family:Backstreet;-inkscape-font-specification:Backstreet;letter-spacing:0px;word-spacing:0px;fill:#000000;fill-opacity:1;stroke:none;stroke-width:36.17801666"
         d="m 366.33378,-120.84139 v 65.242896 H 273.06227 V -238.84392 q 0,-24.02447 16.9584,-40.98291 16.9585,-16.95845 40.9829,-16.95845 h 117.76709 q 23.78895,0 40.74739,16.95845 16.95844,16.95844 16.95844,40.98291 v 183.245426 h -93.27145 v -65.242896 z m 46.87126,-65.94951 v -40.74739 q 0,-3.29748 -3.29747,-3.29748 h -40.27632 q -3.29747,0 -3.29747,3.29748 v 40.74739 z" />
    </g>
    <g
       id="g935"
       transform="matrix(0.89999998,0,0,0.89999998,50.000021,55.236228)">
      <path
         sodipodi:nodetypes="scsccccssssccscsscsccccccccccccccsssssssccss"
         inkscape:connector-curvature="0"
         id="path2176"
         d="m 254.08358,359.19458 c -20.54416,0 -38.06656,7.2516 -52.56842,21.7534 -14.50176,14.50181 -21.75339,32.02419 -21.75339,52.56842 v 2.64057 62.19623 l -0.37077,108.03046 0.37077,-0.005 v 50.32618 c 0,2.8198 -1.4091,4.22894 -4.22893,4.22894 h -51.664 c -2.81974,0 -4.22894,-1.40914 -4.22894,-4.22894 V 397.67577 H -2.41e-5 v 273.53216 c 0,20.54422 7.2517171,38.0666 21.7533941,52.56842 14.501857,14.50179 32.024089,21.75339 52.56843,21.75339 h 151.06123 c 20.34278,0 37.76591,-7.2516 52.26778,-21.75339 14.50176,-14.50182 21.7509,-32.02422 21.7509,-52.56842 V 668.56735 605.131 l 60.12186,-0.62632 V 707.04855 H 479.16351 V 603.25454 l 225.21019,-2.34996 c 21.51266,1.30983 47.04015,5.6424 58.69635,17.65727 l 207.70576,10.91052 C 973.71924,596.92684 983.78705,571.22015 1000,552.36216 983.78705,533.50417 973.71924,507.79747 970.77581,475.25197 l -207.70576,10.91051 c -11.6562,12.01492 -37.18369,16.34743 -58.69635,17.65726 L 479.16351,501.47228 V 433.5164 c 0,-20.54423 -7.24909,-38.06661 -21.7509,-52.56842 -14.5018,-14.5018 -31.92496,-21.7534 -52.26778,-21.7534 z m 49.54956,84.59349 h 51.6615 c 2.81979,0 4.22893,1.40912 4.22893,4.22893 v 52.21016 l -60.12186,-0.62632 V 448.017 c 0,-2.8198 1.41164,-4.22893 4.23143,-4.22893 z"
         style="font-style:normal;font-variant:normal;font-weight:normal;font-stretch:normal;font-size:261.60873413px;line-height:1.25;font-family:Backstreet;-inkscape-font-specification:Backstreet;letter-spacing:0px;word-spacing:0px;fill:#000000;fill-opacity:1;stroke:none;stroke-width:46.40577698" />
      <text
         id="text2232"
         y="579.54736"
         x="241.9409"
         style="font-style:normal;font-variant:normal;font-weight:normal;font-stretch:normal;font-size:108.74090576px;line-height:1.25;font-family:Backstreet;-inkscape-font-specification:Backstreet;letter-spacing:0px;word-spacing:0px;display:inline;fill:#ffffff;fill-opacity:1;stroke:none;stroke-width:8.15556812"
         xml:space="preserve"><tspan
           style="font-style:normal;font-variant:normal;font-weight:normal;font-stretch:normal;font-family:Backstreet;-inkscape-font-specification:Backstreet;fill:#ffffff;stroke-width:8.15556812"
           y="579.54736"
           x="241.9409"
           id="tspan2230"
           sodipodi:role="line">UKEALONG.COM</tspan></text>
    </g>
  </g>
</svg>
